<svg version="1.1" xmlns="http://www.w3.org/2000/svg" viewBox="0 0 172.47154390450055 177.28870567178046" width="172.47154390450055" height="177.28870567178046">
  <!-- svg-source:excalidraw -->
  
  <defs>
    <style class="style-fonts">
      @font-face {
        font-family: "Virgil";
        src: url("https://excalidraw.com/Virgil.woff2");
      }
      @font-face {
        font-family: "Cascadia";
        src: url("https://excalidraw.com/Cascadia.woff2");
      }
      @font-face {
        font-family: "Assistant";
        src: url("https://excalidraw.com/Assistant-Regular.woff2");
      }
    </style>
    
  </defs>
  <g transform="translate(10.672756239744103 19.143239865887153) rotate(0 36.12587462068052 26.315555782895444)" stroke="none"><path fill="#1e1e1e" d="M 2.59,0.19 Q 2.59,0.19 2.58,1.59 2.58,3.00 2.60,4.17 2.62,5.34 2.62,7.08 2.62,8.81 2.66,9.87 2.71,10.94 2.68,12.42 2.65,13.91 2.71,15.15 2.77,16.39 2.72,17.56 2.67,18.72 3.93,18.77 5.19,18.82 6.44,18.82 7.68,18.82 8.89,18.67 10.09,18.52 11.17,18.51 12.26,18.51 13.98,18.41 15.70,18.32 16.77,18.19 17.85,18.05 19.08,17.99 20.31,17.92 21.82,18.17 23.34,18.41 24.53,19.47 25.72,20.52 26.12,22.16 26.52,23.79 26.66,25.47 26.79,27.15 26.83,28.44 26.88,29.74 26.81,31.39 26.74,33.04 26.70,34.34 26.66,35.64 26.55,36.95 26.45,38.27 26.29,39.64 26.13,41.02 26.01,42.47 25.90,43.91 25.80,45.04 25.70,46.16 25.68,47.45 25.65,48.73 25.66,49.95 25.67,51.17 25.59,52.38 25.51,53.60 25.51,54.80 25.51,55.99 25.72,57.47 25.93,58.95 26.84,58.34 27.75,57.74 28.89,57.73 30.02,57.73 31.88,57.75 33.74,57.77 35.39,57.98 37.05,58.19 38.60,58.34 40.15,58.49 41.28,58.53 42.41,58.57 43.78,58.53 45.15,58.50 45.43,56.89 45.71,55.28 45.82,54.19 45.94,53.10 45.97,51.67 45.99,50.24 46.00,48.86 46.01,47.47 46.02,45.87 46.04,44.27 46.04,42.79 46.05,41.31 45.96,40.16 45.86,39.01 45.69,37.88 45.52,36.75 45.31,35.59 45.11,34.42 44.94,33.29 44.77,32.16 44.59,30.70 44.40,29.24 44.37,27.93 44.33,26.62 44.31,25.49 44.30,24.35 44.75,22.61 45.20,20.86 46.34,19.99 47.49,19.12 49.16,18.54 50.83,17.97 52.35,17.73 53.86,17.49 55.34,17.27 56.81,17.05 58.07,16.86 59.32,16.68 60.53,16.49 61.74,16.30 63.22,16.17 64.70,16.04 65.82,15.83 66.93,15.62 68.10,15.46 69.28,15.31 69.20,14.13 69.13,12.95 69.14,11.84 69.16,10.72 69.07,9.35 68.98,7.98 68.88,6.74 68.77,5.50 68.74,4.22 68.71,2.94 68.61,1.85 68.51,0.76 68.42,-0.46 68.33,-1.68 68.13,-2.73 67.94,-3.79 67.61,-5.11 67.29,-6.43 68.52,-5.57 69.75,-4.70 68.36,-4.66 66.98,-4.62 65.61,-4.87 64.24,-5.12 62.56,-5.38 60.89,-5.63 59.69,-5.66 58.50,-5.70 57.21,-5.60 55.93,-5.51 54.00,-5.39 52.06,-5.26 50.66,-5.09 49.26,-4.93 47.66,-4.65 46.05,-4.37 44.64,-4.12 43.23,-3.86 41.43,-3.69 39.63,-3.51 37.94,-3.26 36.26,-3.01 35.05,-2.86 33.85,-2.70 32.53,-2.51 31.22,-2.31 29.77,-2.23 28.33,-2.15 26.92,-2.06 25.50,-1.97 24.30,-1.89 23.09,-1.81 21.46,-1.70 19.82,-1.58 18.36,-1.46 16.90,-1.34 15.81,-1.20 14.72,-1.07 13.57,-0.92 12.43,-0.77 11.34,-0.66 10.26,-0.56 8.81,-0.29 7.36,-0.02 6.29,0.11 5.21,0.25 4.13,0.54 3.05,0.82 2.60,0.90 2.16,0.98 1.72,0.95 1.27,0.92 0.84,0.78 0.42,0.65 0.03,0.42 -0.34,0.18 -0.65,-0.13 -0.97,-0.45 -1.20,-0.83 -1.43,-1.21 -1.56,-1.64 -1.69,-2.07 -1.71,-2.52 -1.74,-2.96 -1.66,-3.40 -1.57,-3.84 -1.39,-4.25 -1.20,-4.66 -0.92,-5.01 -0.65,-5.36 -0.29,-5.64 0.05,-5.91 0.46,-6.09 0.87,-6.27 2.60,-6.60 4.33,-6.93 4.93,-6.94 5.53,-6.96 6.10,-6.78 6.67,-6.60 7.15,-6.25 7.64,-5.90 7.98,-5.42 8.33,-4.93 8.51,-4.36 8.68,-3.79 8.66,-3.19 8.64,-2.59 8.44,-2.03 8.23,-1.47 7.85,-1.00 7.48,-0.54 6.97,-0.22 6.47,0.09 5.89,0.23 5.30,0.38 4.71,0.33 4.11,0.27 3.57,0.04 3.02,-0.19 2.57,-0.59 2.13,-0.99 1.84,-1.51 1.54,-2.04 1.43,-2.62 1.32,-3.21 1.41,-3.80 1.49,-4.39 1.76,-4.93 2.02,-5.46 2.45,-5.88 2.87,-6.31 3.41,-6.57 3.94,-6.83 4.54,-6.91 5.13,-6.99 5.72,-6.88 6.30,-6.76 6.82,-6.47 7.34,-6.17 7.74,-5.72 8.14,-5.28 8.37,-4.73 8.61,-4.18 8.65,-3.58 8.70,-2.99 8.55,-2.41 8.41,-1.83 8.08,-1.32 7.76,-0.82 7.29,-0.45 6.82,-0.08 6.26,0.12 5.70,0.32 5.70,0.32 5.70,0.32 4.37,0.57 3.05,0.82 2.60,0.90 2.16,0.98 1.72,0.95 1.27,0.92 0.84,0.78 0.42,0.65 0.03,0.42 -0.34,0.18 -0.65,-0.13 -0.97,-0.44 -1.20,-0.83 -1.43,-1.21 -1.56,-1.64 -1.69,-2.07 -1.71,-2.52 -1.74,-2.96 -1.66,-3.40 -1.57,-3.84 -1.39,-4.25 -1.20,-4.66 -0.92,-5.01 -0.65,-5.36 -0.29,-5.64 0.05,-5.91 0.46,-6.09 0.87,-6.27 0.64,-6.11 0.40,-5.95 2.27,-6.36 4.14,-6.77 5.93,-7.06 7.72,-7.36 8.80,-7.56 9.89,-7.77 11.17,-7.85 12.45,-7.93 14.12,-8.13 15.79,-8.33 17.03,-8.42 18.27,-8.51 19.36,-8.54 20.46,-8.57 22.14,-8.64 23.83,-8.72 24.96,-8.82 26.10,-8.92 27.89,-9.05 29.69,-9.17 31.22,-9.29 32.76,-9.40 33.98,-9.53 35.21,-9.66 36.96,-9.95 38.72,-10.24 40.30,-10.41 41.87,-10.58 43.42,-10.87 44.98,-11.16 46.84,-11.44 48.70,-11.72 50.04,-11.87 51.38,-12.03 53.12,-12.20 54.86,-12.38 56.76,-12.46 58.65,-12.54 60.08,-12.49 61.50,-12.43 63.29,-12.21 65.08,-11.98 66.51,-11.89 67.93,-11.80 70.04,-11.28 72.16,-10.77 73.40,-9.34 74.64,-7.92 74.97,-6.75 75.31,-5.59 75.57,-4.44 75.82,-3.29 75.93,-2.12 76.03,-0.95 76.04,0.11 76.06,1.19 76.16,2.28 76.25,3.38 76.27,4.46 76.30,5.55 76.41,6.78 76.52,8.02 76.59,9.70 76.67,11.38 76.61,12.62 76.55,13.86 76.20,15.26 75.86,16.67 75.34,18.11 74.82,19.55 74.18,20.52 73.54,21.50 71.77,22.16 70.00,22.83 68.82,22.91 67.64,22.99 66.12,23.21 64.59,23.43 63.10,23.57 61.61,23.71 60.42,23.94 59.22,24.17 58.08,24.32 56.94,24.46 55.40,24.67 53.86,24.89 52.73,25.02 51.60,25.14 51.60,26.52 51.59,27.89 51.69,29.19 51.79,30.50 51.88,31.61 51.97,32.72 52.18,34.08 52.39,35.44 52.58,37.10 52.77,38.76 52.86,40.03 52.94,41.30 52.95,42.79 52.96,44.27 52.97,45.88 52.99,47.48 52.99,48.89 52.99,50.31 52.96,51.72 52.93,53.14 52.75,54.62 52.57,56.11 52.41,57.41 52.24,58.72 52.00,59.84 51.77,60.96 51.27,62.02 50.77,63.09 49.49,63.97 48.21,64.85 46.67,64.94 45.13,65.04 43.72,64.98 42.32,64.92 41.15,64.93 39.99,64.93 38.31,65.00 36.63,65.07 35.18,65.09 33.74,65.11 31.88,65.13 30.02,65.15 28.86,65.14 27.70,65.14 26.49,65.08 25.27,65.03 23.76,64.73 22.25,64.42 21.03,63.41 19.82,62.39 19.21,61.00 18.61,59.60 18.55,58.51 18.48,57.41 18.38,55.66 18.28,53.92 18.40,52.54 18.52,51.16 18.54,49.92 18.56,48.68 18.57,47.25 18.58,45.82 18.68,44.76 18.78,43.70 18.93,42.09 19.07,40.48 19.21,39.17 19.35,37.86 19.44,36.69 19.53,35.53 19.57,33.84 19.60,32.14 19.66,30.97 19.71,29.79 19.71,28.68 19.70,27.57 20.21,26.35 20.73,25.13 19.63,25.12 18.52,25.12 17.16,25.27 15.80,25.43 14.04,25.54 12.27,25.66 10.79,25.58 9.30,25.49 7.88,25.64 6.47,25.79 5.22,25.77 3.97,25.74 2.06,25.54 0.14,25.33 -0.97,24.77 -2.09,24.22 -2.94,22.80 -3.79,21.38 -3.89,20.31 -4.00,19.24 -3.83,17.80 -3.67,16.35 -3.59,15.18 -3.52,14.00 -3.34,12.41 -3.16,10.82 -3.03,9.53 -2.89,8.24 -2.77,6.79 -2.64,5.34 -2.62,4.17 -2.60,3.00 -2.61,1.59 -2.62,0.19 -2.58,-0.11 -2.54,-0.43 -2.43,-0.72 -2.32,-1.02 -2.14,-1.27 -1.96,-1.53 -1.73,-1.74 -1.49,-1.95 -1.21,-2.10 -0.93,-2.24 -0.63,-2.32 -0.32,-2.39 -0.01,-2.39 0.30,-2.39 0.60,-2.32 0.91,-2.24 1.19,-2.10 1.47,-1.95 1.70,-1.74 1.94,-1.53 2.12,-1.27 2.29,-1.02 2.41,-0.72 2.52,-0.43 2.55,-0.11 2.59,0.19 2.59,0.19 L 2.59,0.19 Z"></path></g><g transform="translate(94.26886990377534 126.26476821701499) rotate(0 29.63817678973237 3.0486928332700245)" stroke="none"><path fill="#1e1e1e" d="M -2.62,1.12 Q -2.62,1.12 -2.82,-0.14 -3.01,-1.41 -3.22,-2.86 -3.42,-4.31 -3.53,-5.55 -3.64,-6.79 -3.71,-7.96 -3.78,-9.14 -3.75,-10.62 -3.71,-12.10 -3.67,-13.37 -3.63,-14.64 -3.34,-16.36 -3.05,-18.07 -2.72,-19.24 -2.39,-20.41 -1.92,-21.79 -1.45,-23.16 -0.82,-24.05 -0.19,-24.93 0.48,-25.93 1.15,-26.92 2.28,-28.13 3.41,-29.34 4.46,-29.91 5.52,-30.48 6.48,-30.92 7.45,-31.37 8.63,-31.77 9.81,-32.18 11.28,-32.63 12.74,-33.08 14.39,-33.49 16.04,-33.90 17.15,-34.13 18.26,-34.37 19.71,-34.53 21.15,-34.69 22.23,-34.84 23.30,-35.00 24.37,-35.13 25.44,-35.26 26.67,-35.36 27.91,-35.47 29.02,-35.57 30.13,-35.68 31.38,-35.71 32.63,-35.75 33.85,-35.86 35.06,-35.97 36.39,-35.99 37.72,-36.00 38.78,-36.11 39.84,-36.22 41.20,-36.34 42.55,-36.45 44.06,-36.47 45.56,-36.48 47.14,-36.56 48.72,-36.64 49.82,-36.67 50.92,-36.70 52.08,-36.59 53.23,-36.48 54.50,-35.81 55.77,-35.13 56.73,-34.39 57.69,-33.64 58.53,-32.92 59.37,-32.19 60.16,-31.26 60.94,-30.33 61.55,-29.44 62.16,-28.55 62.54,-27.28 62.92,-26.01 62.96,-24.85 63.01,-23.69 62.49,-22.10 61.98,-20.52 60.86,-19.54 59.75,-18.57 58.81,-18.00 57.87,-17.43 56.84,-16.79 55.82,-16.14 54.53,-15.45 53.25,-14.77 52.23,-14.40 51.22,-14.04 50.12,-13.63 49.01,-13.22 47.73,-12.75 46.44,-12.27 45.32,-11.63 44.20,-10.99 43.12,-10.32 42.05,-9.64 43.20,-10.01 44.35,-10.37 46.02,-10.34 47.68,-10.30 48.96,-10.30 50.24,-10.29 51.93,-10.18 53.63,-10.07 54.77,-9.82 55.90,-9.57 56.96,-9.14 58.02,-8.71 59.08,-7.93 60.13,-7.14 61.14,-6.22 62.14,-5.30 62.88,-4.04 63.62,-2.79 63.86,-1.66 64.10,-0.54 64.00,0.57 63.89,1.70 63.00,3.26 62.12,4.82 61.24,5.61 60.36,6.40 59.33,7.04 58.31,7.67 57.28,8.30 56.25,8.92 55.23,9.43 54.22,9.94 52.92,10.43 51.62,10.92 50.34,11.36 49.07,11.80 48.12,12.55 47.16,13.30 46.16,14.19 45.16,15.08 45.71,16.11 46.27,17.14 48.06,17.67 49.85,18.21 51.56,18.72 53.26,19.23 54.70,19.66 56.13,20.09 57.51,20.82 58.89,21.55 60.05,22.53 61.20,23.51 62.09,24.40 62.98,25.29 63.58,26.35 64.18,27.40 64.50,28.76 64.83,30.12 64.62,31.66 64.42,33.19 63.76,34.10 63.10,35.01 61.94,35.98 60.78,36.95 59.75,37.52 58.72,38.10 57.48,38.63 56.23,39.17 54.95,39.55 53.68,39.92 52.38,40.27 51.09,40.61 49.28,40.95 47.47,41.30 45.76,41.51 44.06,41.73 42.94,41.90 41.82,42.08 40.34,42.21 38.86,42.35 37.49,42.41 36.13,42.48 34.76,42.48 33.39,42.48 31.91,42.57 30.42,42.66 29.03,42.70 27.64,42.74 26.49,42.75 25.35,42.76 24.13,42.78 22.91,42.79 21.58,42.80 20.25,42.82 19.01,42.74 17.77,42.65 16.51,42.64 15.26,42.62 13.83,42.41 12.41,42.20 11.32,41.95 10.24,41.70 8.92,41.16 7.59,40.62 6.53,40.06 5.46,39.51 4.61,38.68 3.76,37.85 2.99,36.79 2.23,35.73 1.63,34.75 1.04,33.76 0.58,32.62 0.13,31.48 -0.34,30.36 -0.82,29.24 -1.17,28.18 -1.52,27.11 -1.98,25.60 -2.45,24.10 -2.78,23.07 -3.11,22.05 -3.39,20.44 -3.66,18.84 -3.86,17.69 -4.06,16.55 -4.10,15.21 -4.14,13.88 -4.13,12.63 -4.13,11.37 -4.13,10.28 -4.14,9.19 -4.35,7.92 -4.56,6.65 -4.74,5.55 -4.92,4.45 -4.23,3.33 -3.54,2.20 -3.66,1.76 -3.78,1.32 -3.80,0.86 -3.82,0.40 -3.72,-0.03 -3.63,-0.48 -3.43,-0.89 -3.23,-1.31 -2.94,-1.66 -2.65,-2.01 -2.28,-2.28 -1.91,-2.55 -1.49,-2.73 -1.07,-2.91 -0.62,-2.98 -0.16,-3.05 0.28,-3.01 0.74,-2.97 1.17,-2.82 1.60,-2.67 1.99,-2.43 2.37,-2.18 2.69,-1.85 3.00,-1.52 3.23,-1.12 3.46,-0.72 2.07,-1.85 0.68,-2.98 1.25,-2.77 1.83,-2.56 2.31,-2.17 2.78,-1.78 3.11,-1.27 3.44,-0.75 3.59,-0.15 3.74,0.43 3.69,1.05 3.63,1.66 3.39,2.22 3.15,2.78 2.74,3.24 2.33,3.70 1.79,4.00 1.26,4.30 0.65,4.41 0.05,4.53 -0.55,4.44 -1.16,4.36 -1.71,4.08 -2.26,3.81 -2.69,3.38 -3.12,2.94 -3.39,2.39 -3.67,1.84 -3.75,1.23 -3.83,0.62 -3.71,0.02 -3.59,-0.57 -3.29,-1.11 -2.99,-1.64 -2.53,-2.05 -2.07,-2.46 -1.51,-2.70 -0.94,-2.94 -0.33,-2.99 0.27,-3.04 0.87,-2.89 1.46,-2.74 1.98,-2.41 2.50,-2.08 2.88,-1.60 3.26,-1.12 3.47,-0.54 3.68,0.03 3.70,0.64 3.71,1.25 3.53,1.84 3.35,2.43 2.99,2.93 2.63,3.42 2.13,3.78 1.63,4.14 1.04,4.32 0.46,4.49 -1.53,3.35 -3.54,2.20 -3.66,1.76 -3.78,1.32 -3.80,0.86 -3.82,0.40 -3.72,-0.03 -3.63,-0.48 -3.43,-0.89 -3.23,-1.30 -2.94,-1.66 -2.65,-2.01 -2.28,-2.28 -1.91,-2.55 -1.49,-2.73 -1.07,-2.91 -0.62,-2.98 -0.16,-3.05 0.28,-3.01 0.74,-2.97 1.17,-2.82 1.60,-2.67 1.99,-2.43 2.37,-2.18 2.69,-1.85 3.00,-1.52 3.23,-1.12 3.45,-0.72 2.76,0.10 2.07,0.93 2.39,2.27 2.72,3.61 2.88,4.71 3.03,5.81 3.28,6.97 3.52,8.14 3.55,9.34 3.57,10.55 3.57,11.82 3.57,13.10 3.57,14.43 3.57,15.77 3.82,17.40 4.08,19.03 4.42,20.35 4.77,21.68 5.07,22.73 5.37,23.78 5.79,25.08 6.21,26.38 6.68,27.43 7.16,28.49 7.70,29.82 8.24,31.15 8.82,32.36 9.40,33.56 10.66,33.94 11.91,34.32 12.98,34.62 14.06,34.92 15.32,35.04 16.59,35.16 17.89,35.27 19.20,35.39 20.33,35.40 21.45,35.41 22.69,35.43 23.93,35.44 25.37,35.45 26.81,35.47 28.11,35.47 29.42,35.48 30.77,35.38 32.13,35.29 33.39,35.28 34.66,35.26 35.86,35.24 37.06,35.21 38.28,35.07 39.51,34.94 40.85,34.74 42.18,34.55 43.33,34.42 44.48,34.28 45.92,34.07 47.36,33.86 48.60,33.51 49.83,33.16 51.27,32.77 52.71,32.37 53.72,31.98 54.74,31.59 56.02,30.88 57.31,30.18 56.53,29.41 55.76,28.64 54.77,27.91 53.78,27.19 52.72,26.82 51.66,26.45 50.58,26.17 49.51,25.89 48.34,25.47 47.17,25.05 45.48,24.51 43.80,23.96 42.77,23.63 41.74,23.30 40.52,21.83 39.29,20.36 38.90,19.14 38.51,17.92 38.42,16.36 38.33,14.80 38.56,13.76 38.79,12.72 39.25,11.51 39.72,10.30 40.61,9.23 41.51,8.16 42.60,7.23 43.68,6.30 44.64,5.67 45.61,5.03 46.66,4.61 47.71,4.19 49.01,3.77 50.31,3.35 51.25,2.86 52.20,2.37 53.29,1.74 54.38,1.12 55.57,0.76 56.77,0.39 56.00,-0.46 55.24,-1.33 54.12,-1.95 53.00,-2.57 51.62,-2.67 50.24,-2.76 48.96,-2.76 47.68,-2.75 46.36,-2.72 45.04,-2.68 43.67,-2.70 42.31,-2.71 41.18,-2.86 40.05,-3.01 38.98,-3.51 37.91,-4.02 37.21,-4.85 36.51,-5.68 36.09,-7.17 35.67,-8.66 35.69,-9.73 35.71,-10.81 36.00,-12.13 36.28,-13.46 36.98,-14.59 37.67,-15.71 38.64,-16.35 39.62,-16.99 40.69,-17.65 41.76,-18.32 42.89,-18.84 44.01,-19.37 45.51,-19.96 47.01,-20.54 48.03,-20.94 49.05,-21.33 50.06,-21.76 51.07,-22.18 52.07,-22.74 53.07,-23.31 54.23,-23.46 55.39,-23.60 55.17,-24.65 54.95,-25.69 54.22,-26.70 53.49,-27.71 52.48,-28.51 51.48,-29.31 50.30,-29.30 49.13,-29.30 47.91,-29.19 46.69,-29.09 45.61,-29.08 44.52,-29.07 43.36,-29.07 42.20,-29.06 41.13,-28.95 40.07,-28.85 38.91,-28.75 37.75,-28.65 36.51,-28.64 35.28,-28.64 33.99,-28.54 32.70,-28.43 31.61,-28.42 30.52,-28.41 29.08,-28.30 27.63,-28.18 26.44,-28.08 25.25,-27.97 24.13,-27.85 23.00,-27.74 21.84,-27.60 20.68,-27.45 19.09,-27.16 17.51,-26.87 16.29,-26.54 15.07,-26.21 13.66,-25.71 12.24,-25.22 10.95,-24.79 9.66,-24.35 8.67,-23.90 7.68,-23.46 7.00,-22.57 6.33,-21.68 5.48,-20.75 4.63,-19.81 4.16,-18.52 3.68,-17.23 3.38,-15.74 3.09,-14.24 2.90,-13.05 2.70,-11.85 2.54,-10.50 2.38,-9.15 2.31,-7.99 2.25,-6.83 2.19,-5.74 2.12,-4.66 2.15,-3.42 2.18,-2.19 2.36,-0.91 2.54,0.35 2.55,0.66 2.56,0.98 2.49,1.29 2.42,1.60 2.29,1.88 2.15,2.16 1.94,2.40 1.74,2.64 1.49,2.83 1.23,3.02 0.94,3.14 0.65,3.26 0.34,3.30 0.02,3.35 -0.28,3.32 -0.59,3.29 -0.89,3.19 -1.19,3.08 -1.45,2.91 -1.72,2.74 -1.93,2.51 -2.15,2.28 -2.30,2.00 -2.46,1.73 -2.54,1.42 -2.62,1.12 -2.62,1.12 L -2.62,1.12 Z"></path></g><g transform="translate(15.6971382834015 110.50467267668364) rotate(0 31.307293536438692 20.63119135214788)" stroke="none"><path fill="#1e1e1e" d="M -2.54,1.59 Q -2.54,1.59 -2.70,0.46 -2.86,-0.67 -3.06,-2.10 -3.27,-3.52 -3.10,-4.59 -2.93,-5.66 -2.61,-6.79 -2.29,-7.91 -1.72,-8.95 -1.16,-9.99 -0.40,-11.23 0.35,-12.48 1.30,-13.26 2.24,-14.04 3.65,-14.90 5.06,-15.76 6.40,-16.25 7.74,-16.74 9.50,-17.24 11.27,-17.74 12.52,-17.88 13.78,-18.02 14.99,-18.14 16.20,-18.26 17.26,-18.38 18.32,-18.50 19.76,-18.64 21.19,-18.78 22.50,-18.82 23.81,-18.86 25.33,-18.86 26.84,-18.85 28.04,-18.96 29.23,-19.07 30.43,-19.10 31.62,-19.14 32.88,-19.13 34.13,-19.13 35.25,-19.14 36.37,-19.15 37.61,-19.16 38.86,-19.17 40.17,-19.18 41.48,-19.19 43.06,-18.99 44.64,-18.78 45.86,-18.53 47.07,-18.28 48.33,-18.06 49.60,-17.83 51.03,-17.49 52.46,-17.15 53.68,-16.84 54.91,-16.52 56.14,-16.00 57.37,-15.48 58.35,-14.94 59.33,-14.39 60.30,-13.35 61.27,-12.30 61.82,-10.86 62.38,-9.41 62.67,-8.34 62.97,-7.27 63.10,-5.92 63.24,-4.56 63.26,-3.26 63.27,-1.96 63.07,-0.61 62.87,0.73 62.69,1.82 62.51,2.91 61.84,4.31 61.16,5.70 60.45,6.60 59.74,7.50 58.86,8.19 57.98,8.88 56.92,9.92 55.87,10.95 54.88,12.03 53.90,13.11 52.65,13.87 51.39,14.64 50.22,15.22 49.04,15.80 47.99,16.25 46.94,16.71 46.36,17.70 45.79,18.69 44.80,18.31 43.80,17.93 44.85,17.70 45.90,17.48 47.09,17.69 48.29,17.91 49.56,18.20 50.83,18.49 52.18,18.81 53.53,19.12 54.70,19.55 55.87,19.97 57.16,20.78 58.44,21.59 59.27,22.29 60.11,22.99 61.09,23.85 62.07,24.71 62.80,25.68 63.52,26.65 64.13,27.81 64.73,28.97 65.26,30.23 65.80,31.49 66.09,32.66 66.39,33.84 66.46,35.35 66.53,36.87 66.69,38.00 66.85,39.14 66.72,40.27 66.59,41.40 66.10,42.39 65.61,43.37 64.93,44.23 64.25,45.08 63.65,46.06 63.05,47.04 62.26,48.05 61.47,49.07 60.66,49.77 59.84,50.48 58.66,51.29 57.47,52.10 56.31,52.77 55.15,53.45 54.00,54.00 52.85,54.55 51.30,55.08 49.74,55.61 48.30,56.14 46.86,56.68 45.65,57.05 44.45,57.42 43.04,57.76 41.64,58.10 40.27,58.28 38.89,58.45 37.35,58.66 35.81,58.86 34.68,58.89 33.54,58.92 32.47,59.05 31.40,59.18 30.07,59.25 28.73,59.32 27.34,59.48 25.94,59.64 24.75,59.80 23.55,59.96 22.28,60.11 21.01,60.25 19.70,60.30 18.38,60.34 16.96,60.35 15.54,60.37 14.42,60.38 13.29,60.39 12.04,60.39 10.78,60.39 9.76,60.06 8.74,59.74 7.60,59.04 6.47,58.34 5.68,57.34 4.90,56.34 4.33,55.40 3.77,54.46 3.17,53.27 2.58,52.08 2.10,50.83 1.63,49.58 1.25,48.25 0.87,46.93 0.43,45.61 -0.01,44.29 -0.46,42.61 -0.92,40.94 -1.14,39.40 -1.36,37.87 -1.61,36.51 -1.85,35.15 -1.86,33.82 -1.87,32.48 -1.95,31.26 -2.04,30.03 -2.17,28.73 -2.31,27.43 -2.45,25.95 -2.59,24.48 -2.61,23.36 -2.63,22.25 -2.44,21.15 -2.25,20.06 -2.32,18.86 -2.39,17.65 -2.40,16.49 -2.40,15.33 -2.41,13.85 -2.41,12.37 -2.41,11.02 -2.40,9.68 -2.40,8.33 -2.40,6.99 -2.52,5.85 -2.65,4.70 -1.71,4.84 -0.77,4.97 -1.34,4.74 -1.91,4.52 -2.37,4.12 -2.84,3.72 -3.15,3.20 -3.47,2.68 -3.60,2.08 -3.73,1.48 -3.67,0.88 -3.60,0.27 -3.34,-0.28 -3.09,-0.83 -2.67,-1.28 -2.25,-1.72 -1.71,-2.01 -1.17,-2.29 -0.56,-2.39 0.03,-2.49 0.63,-2.39 1.24,-2.29 1.78,-2.01 2.32,-1.72 2.74,-1.28 3.16,-0.83 3.41,-0.28 3.67,0.27 3.74,0.87 3.80,1.48 3.67,2.08 3.54,2.68 3.23,3.20 2.91,3.72 2.45,4.12 1.98,4.51 1.41,4.74 0.84,4.97 0.23,5.00 -0.37,5.03 -0.96,4.87 -1.55,4.71 -2.05,4.36 -2.56,4.02 -2.93,3.53 -3.30,3.05 -3.49,2.47 -3.69,1.89 -3.69,1.28 -3.69,0.67 -3.49,0.09 -3.30,-0.48 -2.93,-0.97 -2.56,-1.46 -2.05,-1.80 -1.55,-2.14 -0.96,-2.31 -0.37,-2.47 0.23,-2.44 0.84,-2.40 0.84,-2.40 0.84,-2.40 2.86,1.55 4.87,5.52 4.99,7.15 5.10,8.78 5.11,10.08 5.11,11.37 5.12,12.85 5.12,14.32 5.11,15.41 5.10,16.51 5.10,17.87 5.09,19.24 4.97,20.74 4.85,22.24 4.70,23.40 4.54,24.56 4.80,25.85 5.06,27.14 5.19,28.41 5.32,29.68 5.44,31.05 5.57,32.42 5.59,33.49 5.62,34.55 5.88,36.06 6.15,37.56 6.49,39.07 6.84,40.57 7.19,41.69 7.53,42.81 7.86,44.03 8.18,45.26 8.65,46.65 9.11,48.05 9.54,49.09 9.96,50.14 10.28,51.36 10.60,52.58 11.95,52.87 13.29,53.17 14.42,53.18 15.54,53.19 16.94,53.20 18.34,53.21 19.50,53.22 20.66,53.23 22.05,53.15 23.43,53.07 24.92,52.91 26.41,52.76 28.31,52.51 30.21,52.26 32.68,51.90 35.16,51.54 36.35,51.39 37.54,51.23 39.18,50.96 40.83,50.68 41.94,50.37 43.06,50.07 44.57,49.56 46.09,49.06 47.26,48.59 48.43,48.13 49.85,47.47 51.27,46.81 52.38,46.18 53.49,45.55 54.85,44.57 56.21,43.58 56.77,42.63 57.34,41.67 58.32,40.73 59.30,39.78 59.10,38.70 58.91,37.62 59.00,36.48 59.09,35.35 58.73,33.94 58.38,32.53 57.36,31.17 56.34,29.81 55.34,28.93 54.34,28.05 53.45,27.44 52.57,26.83 51.40,26.51 50.23,26.20 49.18,25.86 48.13,25.52 46.77,25.37 45.41,25.21 44.10,24.89 42.79,24.57 41.19,23.68 39.59,22.79 38.76,20.85 37.92,18.91 38.24,17.67 38.56,16.44 38.99,15.37 39.43,14.30 39.99,13.37 40.55,12.44 41.42,11.47 42.28,10.51 43.79,9.83 45.29,9.16 46.56,8.52 47.83,7.88 48.76,7.25 49.70,6.62 50.80,5.35 51.90,4.07 52.91,3.26 53.93,2.45 54.54,1.57 55.15,0.69 55.37,-0.40 55.59,-1.49 55.66,-2.73 55.73,-3.97 55.49,-5.42 55.26,-6.87 54.67,-7.79 54.09,-8.71 52.94,-9.22 51.78,-9.73 50.32,-10.09 48.86,-10.45 47.69,-10.67 46.52,-10.88 45.32,-11.07 44.12,-11.26 42.80,-11.55 41.48,-11.84 40.17,-11.85 38.86,-11.87 37.61,-11.87 36.37,-11.88 35.25,-11.89 34.13,-11.90 32.90,-11.89 31.67,-11.89 30.44,-11.87 29.21,-11.86 28.03,-11.78 26.85,-11.69 25.35,-11.69 23.86,-11.68 22.74,-11.68 21.62,-11.67 20.22,-11.56 18.81,-11.45 17.68,-11.34 16.54,-11.22 15.36,-11.10 14.18,-10.99 13.03,-10.85 11.87,-10.72 10.45,-10.30 9.03,-9.88 7.88,-9.43 6.73,-8.99 5.61,-8.32 4.50,-7.64 3.97,-6.68 3.43,-5.72 2.92,-4.68 2.40,-3.65 2.39,-2.48 2.37,-1.31 2.49,-0.17 2.61,0.96 2.61,1.28 2.61,1.59 2.53,1.89 2.46,2.20 2.31,2.47 2.17,2.75 1.96,2.99 1.75,3.22 1.50,3.40 1.24,3.58 0.95,3.69 0.65,3.80 0.34,3.84 0.03,3.87 -0.27,3.84 -0.58,3.80 -0.87,3.69 -1.16,3.58 -1.42,3.40 -1.68,3.22 -1.89,2.99 -2.10,2.75 -2.24,2.48 -2.39,2.20 -2.46,1.90 -2.54,1.59 -2.54,1.59 L -2.54,1.59 Z"></path></g><g transform="translate(103.66356492232626 19.963605069624464) rotate(0 24.808241169798293 26.05156282805956)" stroke="none"><path fill="#1e1e1e" d="M 3.75,3.67 Q 3.75,3.67 2.99,4.39 2.22,5.11 1.22,6.31 0.22,7.50 -0.56,8.54 -1.36,9.58 -2.08,10.90 -2.80,12.23 -3.38,13.60 -3.95,14.97 -4.34,16.12 -4.73,17.28 -5.03,18.37 -5.33,19.47 -5.50,20.61 -5.67,21.74 -5.66,23.34 -5.65,24.94 -5.65,26.13 -5.65,27.32 -5.46,28.40 -5.27,29.49 -5.16,30.58 -5.05,31.68 -4.79,33.12 -4.54,34.55 -4.39,35.87 -4.24,37.20 -4.08,38.27 -3.92,39.35 -3.67,40.44 -3.42,41.53 -2.81,42.93 -2.20,44.34 -1.51,45.19 -0.82,46.05 0.22,47.16 1.27,48.26 3.08,49.33 4.89,50.40 6.31,51.15 7.73,51.89 9.32,52.26 10.91,52.62 12.25,53.07 13.60,53.51 14.58,53.94 15.56,54.38 16.66,54.77 17.76,55.16 19.50,55.56 21.24,55.96 22.36,55.93 23.49,55.91 24.69,55.91 25.88,55.91 27.34,55.81 28.81,55.71 29.98,55.57 31.15,55.43 32.64,55.16 34.13,54.89 35.66,54.51 37.20,54.13 38.52,53.35 39.84,52.56 40.92,51.83 42.00,51.10 43.10,50.33 44.21,49.56 45.06,48.87 45.91,48.18 46.94,47.38 47.96,46.59 48.93,45.74 49.91,44.90 50.85,43.70 51.79,42.50 52.49,41.63 53.20,40.75 53.67,39.41 54.15,38.06 54.42,36.87 54.68,35.68 54.84,34.47 55.01,33.26 55.03,32.09 55.05,30.91 55.06,29.54 55.06,28.16 54.95,26.83 54.85,25.51 54.56,24.24 54.28,22.97 54.03,21.54 53.79,20.11 53.48,18.83 53.17,17.55 52.82,16.29 52.47,15.04 52.03,13.50 51.60,11.96 51.31,10.93 51.03,9.91 50.52,8.66 50.01,7.41 49.28,6.25 48.54,5.10 47.49,3.85 46.45,2.60 45.44,2.06 44.44,1.52 43.32,0.88 42.20,0.25 41.30,-0.42 40.40,-1.11 39.24,-1.35 38.07,-1.60 36.83,-1.98 35.59,-2.37 33.83,-2.81 32.06,-3.25 30.94,-3.44 29.83,-3.64 28.57,-3.76 27.32,-3.89 26.07,-3.90 24.83,-3.90 23.71,-3.90 22.59,-3.89 21.34,-3.79 20.09,-3.68 18.96,-3.46 17.84,-3.24 16.65,-3.10 15.46,-2.95 14.37,-2.72 13.28,-2.49 12.17,-2.09 11.05,-1.69 9.99,-1.37 8.93,-1.06 7.79,-0.35 6.66,0.36 5.70,0.94 4.75,1.53 5.16,1.65 5.57,1.77 5.46,2.34 5.36,2.90 5.07,3.41 4.79,3.92 4.37,4.31 3.94,4.70 3.41,4.93 2.88,5.16 2.30,5.21 1.72,5.26 1.16,5.13 0.60,4.99 0.11,4.69 -0.37,4.38 -0.74,3.93 -1.11,3.48 -1.31,2.94 -1.51,2.40 -1.53,1.82 -1.55,1.24 -1.39,0.68 -1.22,0.13 -0.89,-0.33 -0.55,-0.81 -0.08,-1.15 0.37,-1.49 0.93,-1.66 1.48,-1.84 2.06,-1.83 2.64,-1.82 3.18,-1.62 3.73,-1.42 4.18,-1.06 4.63,-0.70 4.95,-0.22 5.27,0.26 5.41,0.82 5.55,1.38 5.51,1.96 5.47,2.53 5.24,3.07 5.02,3.60 4.63,4.04 4.25,4.47 3.75,4.76 3.25,5.05 2.68,5.16 2.11,5.27 1.54,5.20 0.96,5.12 0.44,4.87 -0.07,4.62 -0.48,4.21 -0.90,3.80 -1.16,3.29 -1.42,2.77 -1.50,2.20 -1.58,1.62 -1.58,1.62 -1.58,1.62 -1.02,-1.14 -0.45,-3.91 0.93,-4.87 2.31,-5.83 3.59,-6.50 4.87,-7.18 6.19,-7.69 7.51,-8.20 8.78,-8.75 10.05,-9.29 11.21,-9.63 12.38,-9.98 14.06,-10.15 15.74,-10.32 16.79,-10.50 17.84,-10.68 18.99,-10.87 20.14,-11.05 21.67,-11.15 23.21,-11.24 24.57,-11.24 25.93,-11.24 27.27,-11.20 28.60,-11.17 30.05,-10.99 31.50,-10.81 33.26,-10.41 35.02,-10.01 36.83,-9.67 38.64,-9.34 40.00,-8.96 41.36,-8.59 42.54,-8.14 43.72,-7.68 44.77,-7.02 45.81,-6.37 47.46,-5.46 49.12,-4.56 49.96,-3.87 50.80,-3.17 51.79,-2.30 52.78,-1.42 53.52,-0.63 54.26,0.14 54.89,1.10 55.53,2.07 56.00,3.02 56.48,3.96 57.10,5.23 57.71,6.50 58.26,8.04 58.82,9.57 59.13,10.93 59.44,12.28 59.76,13.42 60.08,14.56 60.31,15.67 60.54,16.77 60.86,18.09 61.18,19.40 61.47,20.68 61.75,21.95 61.99,23.46 62.22,24.96 62.38,26.16 62.54,27.37 62.55,28.67 62.55,29.96 62.55,31.04 62.56,32.11 62.55,33.23 62.55,34.35 62.41,35.49 62.28,36.63 62.01,37.85 61.75,39.08 61.51,40.33 61.28,41.58 60.71,42.79 60.15,44.00 59.48,44.96 58.81,45.92 58.08,46.81 57.35,47.70 56.35,48.86 55.34,50.02 54.12,51.20 52.90,52.39 52.01,53.02 51.12,53.66 50.22,54.42 49.31,55.18 48.17,56.04 47.04,56.90 45.94,57.55 44.83,58.20 43.85,58.82 42.87,59.44 41.48,60.20 40.08,60.97 38.89,61.41 37.70,61.84 36.23,62.10 34.75,62.35 33.49,62.62 32.23,62.90 31.09,63.04 29.95,63.18 28.77,63.30 27.60,63.43 26.34,63.43 25.07,63.44 23.88,63.44 22.68,63.44 21.45,63.40 20.22,63.36 18.86,63.17 17.50,62.99 16.39,62.59 15.29,62.20 14.16,61.81 13.04,61.42 11.73,60.86 10.43,60.29 9.38,59.98 8.32,59.66 7.16,59.38 6.00,59.09 4.89,58.61 3.77,58.13 2.50,57.52 1.22,56.91 -0.14,56.22 -1.51,55.53 -2.73,54.59 -3.96,53.65 -4.79,52.88 -5.63,52.11 -6.39,51.09 -7.15,50.06 -7.90,49.00 -8.65,47.94 -9.32,46.55 -9.98,45.16 -10.34,43.85 -10.71,42.53 -10.99,41.16 -11.27,39.78 -11.41,38.60 -11.55,37.42 -11.79,35.71 -12.03,34.00 -12.15,32.94 -12.27,31.87 -12.39,30.74 -12.51,29.60 -12.62,28.47 -12.72,27.35 -12.72,26.14 -12.72,24.93 -12.71,23.38 -12.69,21.82 -12.47,20.45 -12.25,19.07 -11.82,17.81 -11.39,16.54 -10.96,15.25 -10.53,13.96 -10.05,12.75 -9.57,11.53 -9.06,10.37 -8.56,9.21 -7.90,8.19 -7.24,7.17 -6.23,6.01 -5.21,4.84 -4.33,3.93 -3.44,3.01 -2.41,2.05 -1.37,1.09 -0.57,0.40 0.22,-0.27 0.48,-0.45 0.74,-0.63 1.04,-0.75 1.34,-0.86 1.66,-0.90 1.97,-0.94 2.29,-0.91 2.61,-0.87 2.91,-0.76 3.21,-0.65 3.47,-0.47 3.73,-0.29 3.95,-0.05 4.16,0.18 4.31,0.46 4.46,0.74 4.54,1.05 4.61,1.36 4.62,1.68 4.62,2.00 4.54,2.31 4.47,2.62 4.32,2.90 4.17,3.19 3.96,3.43 3.75,3.67 3.75,3.67 L 3.75,3.67 Z"></path></g><g transform="translate(122.91220710120297 39.07272046856906) rotate(0 5.409035431484767 7.911299135167155)" stroke="none"><path fill="#1e1e1e" d="M 2.04,0.40 Q 2.04,0.40 1.87,1.39 1.69,2.38 1.59,3.95 1.48,5.52 1.47,6.86 1.45,8.19 1.52,9.44 1.60,10.69 1.80,11.86 2.00,13.03 2.19,14.10 2.38,15.18 1.10,14.17 -0.17,13.17 0.24,12.07 0.67,10.97 1.77,10.14 2.87,9.30 4.09,8.49 5.30,7.68 6.31,6.95 7.31,6.22 8.36,5.46 9.40,4.69 9.19,6.26 8.99,7.83 8.04,7.34 7.08,6.84 6.14,6.34 5.20,5.84 3.98,5.31 2.75,4.79 1.38,4.20 0.02,3.61 -0.58,3.60 -1.19,3.58 -1.77,3.37 -2.34,3.17 -2.82,2.79 -3.30,2.40 -3.63,1.89 -3.96,1.38 -4.12,0.78 -4.27,0.19 -4.22,-0.41 -4.17,-1.02 -3.93,-1.58 -3.69,-2.15 -3.29,-2.60 -2.88,-3.06 -2.35,-3.36 -1.82,-3.67 -1.22,-3.79 -0.62,-3.90 -0.01,-3.82 0.58,-3.74 1.13,-3.47 1.68,-3.21 2.12,-2.77 2.55,-2.34 2.83,-1.80 3.10,-1.25 3.19,-0.64 3.27,-0.04 3.16,0.55 3.05,1.15 2.75,1.69 2.45,2.22 2.00,2.63 1.54,3.04 0.98,3.29 0.42,3.53 -0.18,3.58 -0.79,3.64 -1.38,3.49 -1.98,3.35 -2.49,3.02 -3.01,2.69 -3.40,2.22 -3.78,1.74 -4.00,1.17 -4.21,0.60 -4.23,-0.01 -4.25,-0.62 -4.07,-1.20 -3.89,-1.79 -3.54,-2.29 -3.18,-2.79 -2.69,-3.14 -2.19,-3.50 -1.61,-3.69 -1.03,-3.87 -1.03,-3.87 -1.03,-3.87 1.75,-3.39 4.54,-2.91 5.57,-2.30 6.60,-1.68 7.94,-1.13 9.28,-0.58 10.25,-0.05 11.22,0.48 12.42,1.27 13.62,2.07 14.54,3.06 15.45,4.05 15.78,5.45 16.10,6.84 15.73,7.89 15.37,8.94 14.48,9.85 13.59,10.77 12.49,11.54 11.39,12.31 10.31,13.05 9.23,13.78 8.19,14.45 7.15,15.11 6.11,15.82 5.06,16.54 4.15,17.21 3.24,17.88 2.02,18.58 0.80,19.28 -0.29,19.23 -1.39,19.18 -2.71,18.28 -4.03,17.39 -4.28,16.28 -4.53,15.18 -4.52,14.12 -4.51,13.05 -4.62,11.65 -4.73,10.24 -4.65,9.17 -4.57,8.10 -4.39,6.88 -4.22,5.65 -4.01,4.58 -3.81,3.51 -3.66,2.40 -3.52,1.28 -3.28,0.31 -3.05,-0.66 -2.94,-0.96 -2.84,-1.25 -2.67,-1.52 -2.50,-1.78 -2.28,-2.00 -2.05,-2.21 -1.78,-2.37 -1.50,-2.52 -1.20,-2.61 -0.90,-2.70 -0.59,-2.71 -0.27,-2.72 0.02,-2.65 0.33,-2.59 0.61,-2.45 0.90,-2.32 1.14,-2.12 1.38,-1.92 1.57,-1.66 1.75,-1.41 1.88,-1.12 2.00,-0.83 2.05,-0.52 2.09,-0.21 2.07,0.09 2.04,0.40 2.04,0.40 L 2.04,0.40 Z"></path></g></svg>